<svg xmlns="http://www.w3.org/2000/svg" width="249.881" height="17.46" viewBox="0 0 672.626 47">
  <defs>
    <style>
      .cls-1 {
        fill: #3949ab;
        fill-rule: evenodd;
      }
    </style>
  </defs>
  <path id="Color_Dictionary" data-name="Color Dictionary" class="cls-1" d="M212.3,427.309a23.5,23.5,0,1,1,16.607-40.088,4.926,4.926,0,0,1,0,6.969,4.889,4.889,0,0,1-7,0,13.609,13.609,0,1,0,0,19.244,4.95,4.95,0,0,1,7,7,22.625,22.625,0,0,1-16.607,6.875h0Zm58.7-23.481a13.613,13.613,0,1,0-3.987,9.606,13.1,13.1,0,0,0,3.987-9.606h0Zm-37.106,0a23.473,23.473,0,1,1,6.875,16.606,22.628,22.628,0,0,1-6.875-16.606h0Zm83.411,23.481a4.853,4.853,0,0,0,3.516-1.444,4.964,4.964,0,0,0,0-7,4.853,4.853,0,0,0-3.516-1.444H297.533V385.275a4.751,4.751,0,0,0-1.444-3.485,4.888,4.888,0,0,0-7,0,4.749,4.749,0,0,0-1.445,3.485v37.074a4.932,4.932,0,0,0,4.961,4.96h24.706Zm45.111-23.481a13.613,13.613,0,1,0-3.987,9.606,13.1,13.1,0,0,0,3.987-9.606h0Zm-37.106,0a23.473,23.473,0,1,1,6.875,16.606,22.624,22.624,0,0,1-6.875-16.606h0Zm84.666-6.185a7.505,7.505,0,0,0-7.44-7.44H388.949v14.849h13.593a7.45,7.45,0,0,0,7.44-7.409h0Zm-21.033,17.3v7.408a4.945,4.945,0,1,1-9.889,0V385.275a4.985,4.985,0,0,1,4.96-4.961h18.522a17.284,17.284,0,0,1,15.1,25.774,17.137,17.137,0,0,1-5.839,6.153l6.624,6.624a4.964,4.964,0,0,1,0,7,4.853,4.853,0,0,1-3.516,1.444,4.745,4.745,0,0,1-3.484-1.444L400.5,414.941H388.949Zm74.086,2.48h7.409a13.609,13.609,0,0,0,0-27.218h-7.409v27.218Zm-4.928,9.888a4.93,4.93,0,0,1-4.96-4.96V385.275a4.985,4.985,0,0,1,4.96-4.961h12.337a23.5,23.5,0,0,1,0,47H458.107Zm47.56,0a4.932,4.932,0,0,1-4.961-4.96V385.275a4.987,4.987,0,0,1,4.961-4.961,4.7,4.7,0,0,1,3.484,1.476,4.751,4.751,0,0,1,1.444,3.485v37.074a4.93,4.93,0,0,1-4.928,4.96h0Zm35.191,0a23.5,23.5,0,1,1,16.606-40.088,4.926,4.926,0,0,1,0,6.969,4.888,4.888,0,0,1-7,0,13.609,13.609,0,1,0,0,19.244,4.95,4.95,0,0,1,7,7,22.623,22.623,0,0,1-16.606,6.875h0Zm25.3-37.106a4.928,4.928,0,0,1-3.516-8.413,4.734,4.734,0,0,1,3.516-1.476h30.891a4.8,4.8,0,0,1,3.516,1.476,4.926,4.926,0,0,1,0,6.969,4.853,4.853,0,0,1-3.516,1.444H586.534v32.146a4.93,4.93,0,0,1-4.929,4.96,4.853,4.853,0,0,1-3.516-1.444,4.782,4.782,0,0,1-1.444-3.516V390.2H566.16ZM612.5,427.309a4.93,4.93,0,0,1-4.96-4.96V385.275a4.985,4.985,0,0,1,4.96-4.961,4.7,4.7,0,0,1,3.484,1.476,4.748,4.748,0,0,1,1.444,3.485v37.074a4.93,4.93,0,0,1-4.928,4.96h0Zm48.815-23.481a13.613,13.613,0,1,0-3.987,9.606,13.1,13.1,0,0,0,3.987-9.606h0Zm-37.106,0a23.473,23.473,0,1,1,6.875,16.606,22.628,22.628,0,0,1-6.875-16.606h0Zm57.009-23.2a4.969,4.969,0,0,1,5.494,1.476l22.163,26.589V385.275a4.748,4.748,0,0,1,1.444-3.485,4.7,4.7,0,0,1,3.485-1.476,4.8,4.8,0,0,1,3.516,1.476,4.751,4.751,0,0,1,1.444,3.485v37.074a4.834,4.834,0,0,1-.911,2.857,4.729,4.729,0,0,1-2.354,1.821,5.153,5.153,0,0,1-1.7.282,4.7,4.7,0,0,1-3.8-1.789l-22.163-26.59v23.419a4.945,4.945,0,1,1-9.889,0V385.275a4.943,4.943,0,0,1,3.265-4.647h0Zm60.651,27.5h11.8l-5.9-11.8Zm-14.849,18.648a4.66,4.66,0,0,1-2.48-2.857,4.725,4.725,0,0,1,.251-3.767l18.553-37.106a4.935,4.935,0,0,1,8.853,0l18.522,37.106a4.641,4.641,0,0,1,.282,3.767,4.79,4.79,0,0,1-2.48,2.857,4.726,4.726,0,0,1-2.2.533,4.912,4.912,0,0,1-4.427-2.762l-3.3-6.53H736.905l-3.265,6.53a4.663,4.663,0,0,1-2.857,2.48,4.729,4.729,0,0,1-3.767-.251h0ZM807.7,397.643a7.5,7.5,0,0,0-7.44-7.44H786.662v14.849h13.593a7.448,7.448,0,0,0,7.44-7.409h0Zm-21.033,17.3v7.408a4.945,4.945,0,1,1-9.889,0V385.275a4.987,4.987,0,0,1,4.961-4.961h18.521a17.284,17.284,0,0,1,15.1,25.774,17.146,17.146,0,0,1-5.839,6.153l6.624,6.624a4.964,4.964,0,0,1,0,7,4.853,4.853,0,0,1-3.516,1.444,4.748,4.748,0,0,1-3.485-1.444l-10.924-10.924H786.662Zm72.423-33.873a4.852,4.852,0,0,1,2.2,3.076,4.7,4.7,0,0,1-.627,3.736l-14.692,23.545v10.924a4.786,4.786,0,0,1-1.444,3.516A4.853,4.853,0,0,1,841,427.309a4.93,4.93,0,0,1-4.929-4.96V411.425L821.351,387.88a4.946,4.946,0,0,1,5.3-7.44,4.755,4.755,0,0,1,3.077,2.2L841,400.657l11.27-18.019a4.75,4.75,0,0,1,3.076-2.2,4.876,4.876,0,0,1,3.736.628h0Z" transform="translate(-188.812 -380.312)"/>
</svg>
