<svg xmlns="http://www.w3.org/2000/svg" width="149.589" height="18.484" viewBox="0 0 157.562 19.469">
  <defs>
    <style>
      .cls-1 {
        fill: #4b5ed0;
        stroke: #fff;
        stroke-width: 1.5px;
        fill-rule: evenodd;
      }
    </style>
  </defs>
  <path id="DICTIONARY" class="cls-1" d="M405.706,402.355h2.832a5.2,5.2,0,0,0,0-10.4h-2.832v10.4Zm-1.884,3.78a1.885,1.885,0,0,1-1.9-1.9V390.067a1.905,1.905,0,0,1,1.9-1.9h4.716a8.982,8.982,0,0,1,0,17.964h-4.716Zm18.18,0a1.885,1.885,0,0,1-1.9-1.9V390.067a1.905,1.905,0,0,1,1.9-1.9,1.8,1.8,0,0,1,1.332.564,1.815,1.815,0,0,1,.552,1.332v14.172a1.885,1.885,0,0,1-1.884,1.9h0Zm13.452,0a8.982,8.982,0,1,1,6.348-15.324,1.883,1.883,0,0,1,0,2.664,1.869,1.869,0,0,1-2.676,0,5.2,5.2,0,1,0,0,7.356,1.892,1.892,0,0,1,2.676,2.676,8.649,8.649,0,0,1-6.348,2.628h0Zm9.672-14.184a1.884,1.884,0,0,1-1.344-3.216,1.81,1.81,0,0,1,1.344-.564h11.808a1.835,1.835,0,0,1,1.344.564,1.883,1.883,0,0,1,0,2.664,1.855,1.855,0,0,1-1.344.552h-4.02v12.288a1.885,1.885,0,0,1-1.884,1.9,1.855,1.855,0,0,1-1.344-.552,1.829,1.829,0,0,1-.552-1.344V391.951h-4.008Zm17.712,14.184a1.885,1.885,0,0,1-1.9-1.9V390.067a1.905,1.905,0,0,1,1.9-1.9,1.8,1.8,0,0,1,1.332.564,1.815,1.815,0,0,1,.552,1.332v14.172a1.885,1.885,0,0,1-1.884,1.9h0Zm18.66-8.976a5.2,5.2,0,1,0-1.524,3.672,5,5,0,0,0,1.524-3.672h0Zm-14.184,0a8.973,8.973,0,1,1,2.628,6.348,8.649,8.649,0,0,1-2.628-6.348h0Zm21.792-8.868a1.9,1.9,0,0,1,2.1.564l8.472,10.164v-8.952a1.815,1.815,0,0,1,.552-1.332,1.8,1.8,0,0,1,1.332-.564,1.835,1.835,0,0,1,1.344.564,1.815,1.815,0,0,1,.552,1.332v14.172a1.848,1.848,0,0,1-.348,1.092,1.808,1.808,0,0,1-.9.7,1.967,1.967,0,0,1-.648.108,1.8,1.8,0,0,1-1.452-.684l-8.472-10.164v8.952a1.89,1.89,0,1,1-3.78,0V390.067a1.888,1.888,0,0,1,1.248-1.776h0ZM512.278,398.8h4.512l-2.256-4.512Zm-5.676,7.128a1.782,1.782,0,0,1-.948-1.092,1.806,1.806,0,0,1,.1-1.44l7.092-14.184a1.886,1.886,0,0,1,3.384,0l7.08,14.184a1.775,1.775,0,0,1,.108,1.44,1.832,1.832,0,0,1-.948,1.092,1.809,1.809,0,0,1-.84.2,1.877,1.877,0,0,1-1.692-1.056l-1.26-2.5h-8.292l-1.248,2.5a1.782,1.782,0,0,1-1.092.948,1.806,1.806,0,0,1-1.44-.1h0ZM537.454,394.8a2.868,2.868,0,0,0-2.844-2.844h-5.2v5.676h5.2a2.847,2.847,0,0,0,2.844-2.832h0Zm-8.04,6.612v2.832a1.89,1.89,0,1,1-3.78,0V390.067a1.905,1.905,0,0,1,1.9-1.9h7.08a6.607,6.607,0,0,1,5.772,9.852,6.55,6.55,0,0,1-2.232,2.352l2.532,2.532a1.9,1.9,0,0,1,0,2.676,1.855,1.855,0,0,1-1.344.552,1.815,1.815,0,0,1-1.332-.552l-4.176-4.176h-4.416ZM557.1,388.459a1.856,1.856,0,0,1,.84,1.176,1.8,1.8,0,0,1-.24,1.428l-5.616,9v4.176a1.829,1.829,0,0,1-.552,1.344,1.855,1.855,0,0,1-1.344.552,1.885,1.885,0,0,1-1.884-1.9v-4.176l-5.628-9a1.891,1.891,0,0,1,2.028-2.844,1.816,1.816,0,0,1,1.176.84l4.308,6.888,4.308-6.888a1.816,1.816,0,0,1,1.176-.84,1.862,1.862,0,0,1,1.428.24h0Z" transform="translate(-401.188 -387.406)"/>
</svg>
